<svg width="40" height="40" viewBox="0 0 40 40" fill="none" xmlns="http://www.w3.org/2000/svg">
<path d="M20.2 1C9.6016 1 1 9.6016 1 20.2C1 30.7984 9.6016 39.4 20.2 39.4C30.7984 39.4 39.4 30.7984 39.4 20.2C39.4 9.6016 30.7984 1 20.2 1ZM29.1088 14.056C28.8208 17.0896 27.5728 24.4624 26.9392 27.8608C26.6704 29.3008 26.1328 29.7808 25.6336 29.8384C24.52 29.9344 23.6752 29.1088 22.6 28.3984C20.9104 27.2848 19.9504 26.5936 18.3184 25.5184C16.4176 24.2704 17.6464 23.5792 18.7408 22.4656C19.0288 22.1776 23.944 17.704 24.04 17.3008C24.0533 17.2397 24.0516 17.1763 24.0348 17.1161C24.0181 17.0559 23.9869 17.0006 23.944 16.9552C23.8288 16.8592 23.6752 16.8976 23.5408 16.9168C23.368 16.9552 20.68 18.7408 15.4384 22.2736C14.6704 22.792 13.9792 23.0608 13.3648 23.0416C12.6736 23.0224 11.368 22.6576 10.3888 22.3312C9.1792 21.9472 8.2384 21.736 8.3152 21.064C8.3536 20.7184 8.8336 20.3728 9.736 20.008C15.3424 17.5696 19.0672 15.9568 20.9296 15.1888C26.2672 12.9616 27.3616 12.5776 28.0912 12.5776C28.2448 12.5776 28.6096 12.616 28.84 12.808C29.032 12.9616 29.0896 13.1728 29.1088 13.3264C29.0896 13.4416 29.128 13.7872 29.1088 14.056Z" fill="#162A43"/>
</svg>
